<svg xmlns="http://www.w3.org/2000/svg" xmlns:xlink="http://www.w3.org/1999/xlink" width="2000" zoomAndPan="magnify" viewBox="0 0 1500 1499.999933" height="2000" preserveAspectRatio="xMidYMid meet" version="1.0"><defs><g/><clipPath id="d24bb238b9"><path d="M 0.390625 0.328125 L 915.609375 0.328125 L 915.609375 1307.78125 L 0.390625 1307.78125 Z M 0.390625 0.328125 " clip-rule="nonzero"/></clipPath><clipPath id="e43b31f97a"><path d="M 104.605469 260.582031 L 710.804688 260.582031 L 710.804688 866.78125 L 104.605469 866.78125 Z M 104.605469 260.582031 " clip-rule="nonzero"/></clipPath><clipPath id="734e3635b1"><path d="M 407.703125 260.582031 C 240.308594 260.582031 104.605469 396.285156 104.605469 563.683594 C 104.605469 731.078125 240.308594 866.78125 407.703125 866.78125 C 575.101562 866.78125 710.804688 731.078125 710.804688 563.683594 C 710.804688 396.285156 575.101562 260.582031 407.703125 260.582031 Z M 407.703125 260.582031 " clip-rule="nonzero"/></clipPath><clipPath id="b41c1d5304"><path d="M 0.605469 0.582031 L 606.804688 0.582031 L 606.804688 606.78125 L 0.605469 606.78125 Z M 0.605469 0.582031 " clip-rule="nonzero"/></clipPath><clipPath id="8a7031db5b"><path d="M 303.703125 0.582031 C 136.308594 0.582031 0.605469 136.285156 0.605469 303.683594 C 0.605469 471.078125 136.308594 606.78125 303.703125 606.78125 C 471.101562 606.78125 606.804688 471.078125 606.804688 303.683594 C 606.804688 136.285156 471.101562 0.582031 303.703125 0.582031 Z M 303.703125 0.582031 " clip-rule="nonzero"/></clipPath><clipPath id="cc4ab5f03b"><rect x="0" width="607" y="0" height="607"/></clipPath><clipPath id="b79cbede11"><rect x="0" width="916" y="0" height="1308"/></clipPath><clipPath id="a8eb66bc01"><path d="M 413.386719 311.378906 L 1086.886719 311.378906 L 1086.886719 1063.628906 L 413.386719 1063.628906 Z M 413.386719 311.378906 " clip-rule="nonzero"/></clipPath><clipPath id="ff71972270"><path d="M 537.628906 364.597656 L 945.628906 364.597656 L 945.628906 774.097656 L 537.628906 774.097656 Z M 537.628906 364.597656 " clip-rule="nonzero"/></clipPath><clipPath id="d1f757a9a3"><rect x="0" width="473" y="0" height="143"/></clipPath></defs><g transform="matrix(1, 0, 0, 1, 292, 127)"><g clip-path="url(#b79cbede11)"><g clip-path="url(#d24bb238b9)"><path fill="#e8782c" d="M 458 0.328125 C 205.335938 0.328125 0.390625 205.273438 0.390625 457.9375 C 0.390625 801.144531 458 1307.78125 458 1307.78125 C 458 1307.78125 915.609375 801.144531 915.609375 457.9375 C 915.609375 205.273438 710.664062 0.328125 458 0.328125 Z M 458 621.371094 C 367.785156 621.371094 294.566406 548.152344 294.566406 457.9375 C 294.566406 367.722656 367.785156 294.507812 458 294.507812 C 548.214844 294.507812 621.433594 367.722656 621.433594 457.9375 C 621.433594 548.152344 548.214844 621.371094 458 621.371094 Z M 458 621.371094 " fill-opacity="1" fill-rule="nonzero"/></g><g clip-path="url(#e43b31f97a)"><g clip-path="url(#734e3635b1)"><g transform="matrix(1, 0, 0, 1, 104, 260)"><g clip-path="url(#cc4ab5f03b)"><g clip-path="url(#b41c1d5304)"><g clip-path="url(#8a7031db5b)"><path fill="#e97f2f" d="M 0.605469 0.582031 L 606.804688 0.582031 L 606.804688 606.78125 L 0.605469 606.78125 Z M 0.605469 0.582031 " fill-opacity="1" fill-rule="nonzero"/></g></g></g></g></g></g></g></g><g clip-path="url(#a8eb66bc01)"><path fill="#ffffff" d="M 749.996094 311.683594 L 740.863281 316.867188 C 740.863281 316.867188 604.007812 393.421875 432.085938 393.421875 L 413.386719 393.421875 L 413.386719 707.605469 C 413.386719 832.667969 498.355469 921.804688 580.375 978.472656 C 662.398438 1035.140625 744.226562 1061.601562 744.226562 1061.601562 L 749.996094 1063.429688 L 755.765625 1061.601562 C 755.765625 1061.601562 837.59375 1035.140625 919.617188 978.472656 C 1001.640625 921.804688 1086.605469 832.667969 1086.605469 707.605469 L 1086.605469 393.421875 L 1067.90625 393.421875 C 895.984375 393.421875 759.128906 316.867188 759.128906 316.867188 Z M 749.996094 311.683594 " fill-opacity="1" fill-rule="nonzero"/></g><g clip-path="url(#ff71972270)"><path fill="#2c2421" d="M 806.984375 678.457031 L 806.984375 747.652344 L 774.273438 747.652344 L 774.273438 678.457031 Z M 689.625 537.234375 L 671.8125 541.625 L 671.8125 576.113281 L 689.625 572.765625 Z M 727.71875 527.855469 L 707.65625 532.808594 L 707.65625 569.339844 L 727.71875 565.5625 Z M 727.71875 411.328125 L 707.648438 419.9375 L 707.65625 454.179688 L 727.71875 446.699219 Z M 707.65625 623.652344 L 727.71875 612.660156 L 727.71875 587.289062 L 707.65625 590.386719 Z M 671.8125 631.484375 L 689.621094 629.035156 L 689.621094 593.207031 L 671.8125 595.953125 Z M 727.71875 468.394531 L 707.65625 475.195312 L 707.65625 511.757812 L 727.71875 506.128906 L 727.71875 468.390625 Z M 689.625 481.316406 L 671.8125 487.351562 L 671.8125 521.839844 L 689.625 516.847656 Z M 689.632812 427.65625 L 671.8125 435.292969 L 671.8125 467.511719 L 689.625 460.90625 Z M 637.804688 747.652344 L 552.25 747.652344 L 552.25 508.902344 L 637.804688 472.328125 Z M 583.574219 655.25 L 569.085938 656.664062 L 569.085938 684.453125 L 583.570312 683.796875 Z M 583.578125 609.742188 L 569.085938 612.722656 L 569.085938 640.617188 L 583.578125 638.632812 Z M 583.578125 564.273438 L 569.085938 568.828125 L 569.085938 596.726562 L 583.578125 593.164062 Z M 583.585938 520.636719 L 569.085938 526.746094 L 569.085938 552.800781 L 583.582031 547.675781 Z M 615.089844 652.160156 L 598.398438 653.792969 L 598.398438 683.121094 L 615.089844 682.359375 Z M 615.089844 603.261719 L 598.398438 606.703125 L 598.398438 636.582031 L 615.089844 634.28125 Z M 615.089844 554.324219 L 598.398438 559.597656 L 598.398438 589.492188 L 615.089844 585.378906 Z M 615.089844 507.332031 L 598.394531 514.410156 L 598.394531 542.402344 L 615.089844 536.460938 Z M 944.972656 641.976562 C 944.285156 644.667969 941.9375 646.492188 939.15625 646.492188 L 910.015625 646.492188 L 910.015625 747.652344 L 816.90625 747.652344 L 816.90625 678.457031 L 818.140625 678.457031 C 820.890625 678.457031 823.082031 676.242188 823.082031 673.503906 C 823.082031 670.761719 820.890625 668.546875 818.140625 668.546875 L 763.15625 668.546875 C 760.40625 668.546875 758.175781 670.769531 758.175781 673.503906 C 758.175781 676.234375 760.40625 678.457031 763.15625 678.457031 L 764.390625 678.457031 L 764.390625 747.652344 L 739.175781 747.652344 L 739.175781 646.492188 L 710.035156 646.492188 C 707.257812 646.492188 704.910156 644.667969 704.222656 641.976562 C 703.535156 639.285156 704.714844 636.558594 707.152344 635.222656 L 817.054688 575.011719 C 821.894531 572.359375 827.300781 572.359375 832.140625 575.011719 L 942.042969 635.222656 C 944.476562 636.558594 945.660156 639.285156 944.972656 641.976562 Z M 840.109375 614.394531 C 840.109375 605.828125 833.164062 598.882812 824.597656 598.882812 C 816.03125 598.882812 809.085938 605.828125 809.085938 614.394531 C 809.085938 622.960938 816.03125 629.90625 824.597656 629.90625 C 833.164062 629.90625 840.109375 622.960938 840.109375 614.394531 Z M 883.164062 646.484375 L 837.949219 646.484375 L 837.949219 670.445312 L 883.164062 670.445312 Z M 537.667969 774.367188 L 936.535156 774.367188 L 936.535156 757.5625 L 537.667969 757.5625 Z M 657.636719 413.257812 L 746.867188 375.117188 L 746.867188 602.167969 L 812.292969 566.320312 C 820.097656 562.042969 829.097656 562.042969 836.902344 566.320312 L 846.019531 571.316406 L 846.019531 409.988281 C 846.019531 408.003906 844.863281 406.210938 843.03125 405.433594 L 748.839844 365.164062 C 747.605469 364.628906 746.171875 364.628906 744.9375 365.164062 L 650.746094 405.433594 C 648.914062 406.210938 647.714844 408.003906 647.714844 409.988281 L 647.714844 747.65625 L 657.636719 747.65625 Z M 657.636719 413.257812 " fill-opacity="1" fill-rule="evenodd"/></g><g transform="matrix(1, 0, 0, 1, 515, 774)"><g clip-path="url(#d1f757a9a3)"><g fill="#2c2421" fill-opacity="1"><g transform="translate(0.247381, 106.31223)"><g><path d="M 67.6875 -70.921875 L 67.6875 0 L 50.421875 0 L 50.421875 -29.203125 L 23.546875 -29.203125 L 23.546875 0 L 6.265625 0 L 6.265625 -70.921875 L 23.546875 -70.921875 L 23.546875 -43.140625 L 50.421875 -43.140625 L 50.421875 -70.921875 Z M 67.6875 -70.921875 "/></g></g></g><g fill="#2c2421" fill-opacity="1"><g transform="translate(74.091718, 106.31223)"><g><path d="M 63.859375 -56.375 L 28.484375 26.765625 L 9.90625 26.765625 L 22.828125 -1.921875 L -0.09375 -56.375 L 19.203125 -56.375 L 32.234375 -21.109375 L 45.15625 -56.375 Z M 63.859375 -56.375 "/></g></g></g><g fill="#2c2421" fill-opacity="1"><g transform="translate(137.935252, 106.31223)"><g><path d="M 2.828125 -28.28125 C 2.828125 -34.082031 3.921875 -39.171875 6.109375 -43.546875 C 8.296875 -47.921875 11.273438 -51.285156 15.046875 -53.640625 C 18.828125 -56.003906 23.039062 -57.1875 27.6875 -57.1875 C 31.382812 -57.1875 34.765625 -56.410156 37.828125 -54.859375 C 40.898438 -53.304688 43.3125 -51.21875 45.0625 -48.59375 L 45.0625 -74.765625 L 62.34375 -74.765625 L 62.34375 0 L 45.0625 0 L 45.0625 -8.078125 C 43.445312 -5.390625 41.140625 -3.234375 38.140625 -1.609375 C 35.140625 0.00390625 31.65625 0.8125 27.6875 0.8125 C 23.039062 0.8125 18.828125 -0.378906 15.046875 -2.765625 C 11.273438 -5.160156 8.296875 -8.5625 6.109375 -12.96875 C 3.921875 -17.382812 2.828125 -22.488281 2.828125 -28.28125 Z M 45.0625 -28.1875 C 45.0625 -32.5 43.863281 -35.898438 41.46875 -38.390625 C 39.082031 -40.878906 36.171875 -42.125 32.734375 -42.125 C 29.296875 -42.125 26.378906 -40.894531 23.984375 -38.4375 C 21.597656 -35.976562 20.40625 -32.59375 20.40625 -28.28125 C 20.40625 -23.976562 21.597656 -20.5625 23.984375 -18.03125 C 26.378906 -15.507812 29.296875 -14.25 32.734375 -14.25 C 36.171875 -14.25 39.082031 -15.492188 41.46875 -17.984375 C 43.863281 -20.472656 45.0625 -23.875 45.0625 -28.1875 Z M 45.0625 -28.1875 "/></g></g></g><g fill="#2c2421" fill-opacity="1"><g transform="translate(206.526636, 106.31223)"><g><path d="M 42.4375 0 L 27.6875 -26.765625 L 23.546875 -26.765625 L 23.546875 0 L 6.265625 0 L 6.265625 -70.921875 L 35.265625 -70.921875 C 40.847656 -70.921875 45.609375 -69.941406 49.546875 -67.984375 C 53.492188 -66.035156 56.441406 -63.359375 58.390625 -59.953125 C 60.347656 -56.554688 61.328125 -52.769531 61.328125 -48.59375 C 61.328125 -43.882812 59.992188 -39.675781 57.328125 -35.96875 C 54.671875 -32.257812 50.75 -29.632812 45.5625 -28.09375 L 61.9375 0 Z M 23.546875 -39 L 34.25 -39 C 37.414062 -39 39.789062 -39.769531 41.375 -41.3125 C 42.957031 -42.863281 43.75 -45.054688 43.75 -47.890625 C 43.75 -50.585938 42.957031 -52.707031 41.375 -54.25 C 39.789062 -55.800781 37.414062 -56.578125 34.25 -56.578125 L 23.546875 -56.578125 Z M 23.546875 -39 "/></g></g></g><g fill="#2c2421" fill-opacity="1"><g transform="translate(272.390557, 106.31223)"><g><path d="M 59.40625 -29.09375 C 59.40625 -27.476562 59.304688 -25.796875 59.109375 -24.046875 L 20 -24.046875 C 20.269531 -20.546875 21.398438 -17.867188 23.390625 -16.015625 C 25.378906 -14.160156 27.820312 -13.234375 30.71875 -13.234375 C 35.019531 -13.234375 38.015625 -15.050781 39.703125 -18.6875 L 58.09375 -18.6875 C 57.144531 -14.988281 55.441406 -11.65625 52.984375 -8.6875 C 50.523438 -5.726562 47.441406 -3.40625 43.734375 -1.71875 C 40.035156 -0.03125 35.894531 0.8125 31.3125 0.8125 C 25.789062 0.8125 20.875 -0.363281 16.5625 -2.71875 C 12.257812 -5.082031 8.894531 -8.453125 6.46875 -12.828125 C 4.039062 -17.203125 2.828125 -22.320312 2.828125 -28.1875 C 2.828125 -34.050781 4.019531 -39.171875 6.40625 -43.546875 C 8.800781 -47.921875 12.15625 -51.285156 16.46875 -53.640625 C 20.78125 -56.003906 25.726562 -57.1875 31.3125 -57.1875 C 36.769531 -57.1875 41.617188 -56.039062 45.859375 -53.75 C 50.109375 -51.457031 53.425781 -48.1875 55.8125 -43.9375 C 58.207031 -39.695312 59.40625 -34.75 59.40625 -29.09375 Z M 41.71875 -33.640625 C 41.71875 -36.609375 40.707031 -38.96875 38.6875 -40.71875 C 36.664062 -42.46875 34.144531 -43.34375 31.125 -43.34375 C 28.21875 -43.34375 25.769531 -42.5 23.78125 -40.8125 C 21.800781 -39.132812 20.578125 -36.742188 20.109375 -33.640625 Z M 41.71875 -33.640625 "/></g></g></g><g fill="#2c2421" fill-opacity="1"><g transform="translate(334.61779, 106.31223)"><g><path d="M 40.609375 -56.984375 C 47.210938 -56.984375 52.484375 -54.84375 56.421875 -50.5625 C 60.367188 -46.289062 62.34375 -40.414062 62.34375 -32.9375 L 62.34375 0 L 45.15625 0 L 45.15625 -30.609375 C 45.15625 -34.378906 44.175781 -37.304688 42.21875 -39.390625 C 40.269531 -41.484375 37.644531 -42.53125 34.34375 -42.53125 C 31.050781 -42.53125 28.425781 -41.484375 26.46875 -39.390625 C 24.519531 -37.304688 23.546875 -34.378906 23.546875 -30.609375 L 23.546875 0 L 6.265625 0 L 6.265625 -56.375 L 23.546875 -56.375 L 23.546875 -48.90625 C 25.296875 -51.394531 27.648438 -53.363281 30.609375 -54.8125 C 33.578125 -56.257812 36.910156 -56.984375 40.609375 -56.984375 Z M 40.609375 -56.984375 "/></g></g></g><g fill="#2c2421" fill-opacity="1"><g transform="translate(402.704072, 106.31223)"><g><path d="M 37.6875 -14.65625 L 37.6875 0 L 28.890625 0 C 22.628906 0 17.742188 -1.53125 14.234375 -4.59375 C 10.734375 -7.65625 8.984375 -12.65625 8.984375 -19.59375 L 8.984375 -42.03125 L 2.125 -42.03125 L 2.125 -56.375 L 8.984375 -56.375 L 8.984375 -70.109375 L 26.265625 -70.109375 L 26.265625 -56.375 L 37.578125 -56.375 L 37.578125 -42.03125 L 26.265625 -42.03125 L 26.265625 -19.390625 C 26.265625 -17.710938 26.664062 -16.503906 27.46875 -15.765625 C 28.28125 -15.023438 29.628906 -14.65625 31.515625 -14.65625 Z M 37.6875 -14.65625 "/></g></g></g><g fill="#2c2421" fill-opacity="1"><g transform="translate(443.717509, 106.31223)"><g><path d="M 14.34375 0.8125 C 11.3125 0.8125 8.835938 -0.078125 6.921875 -1.859375 C 5.003906 -3.648438 4.046875 -5.859375 4.046875 -8.484375 C 4.046875 -11.179688 5.003906 -13.4375 6.921875 -15.25 C 8.835938 -17.070312 11.3125 -17.984375 14.34375 -17.984375 C 17.3125 -17.984375 19.753906 -17.070312 21.671875 -15.25 C 23.585938 -13.4375 24.546875 -11.179688 24.546875 -8.484375 C 24.546875 -5.859375 23.585938 -3.648438 21.671875 -1.859375 C 19.753906 -0.078125 17.3125 0.8125 14.34375 0.8125 Z M 14.34375 0.8125 "/></g></g></g></g></g></svg>