<svg xmlns="http://www.w3.org/2000/svg" xmlns:xlink="http://www.w3.org/1999/xlink" width="2000" zoomAndPan="magnify" viewBox="0 0 1500 1499.999933" height="2000" preserveAspectRatio="xMidYMid meet" version="1.0"><defs><g/><clipPath id="f96678a096"><path d="M 0.179688 0.558594 L 329.667969 0.558594 L 329.667969 471.25 L 0.179688 471.25 Z M 0.179688 0.558594 " clip-rule="nonzero"/></clipPath><clipPath id="7e95fda96d"><path d="M 37.699219 94.25 L 255.933594 94.25 L 255.933594 312.488281 L 37.699219 312.488281 Z M 37.699219 94.25 " clip-rule="nonzero"/></clipPath><clipPath id="4a641370c0"><path d="M 146.816406 94.25 C 86.550781 94.25 37.699219 143.105469 37.699219 203.367188 C 37.699219 263.632812 86.550781 312.488281 146.816406 312.488281 C 207.082031 312.488281 255.933594 263.632812 255.933594 203.367188 C 255.933594 143.105469 207.082031 94.25 146.816406 94.25 Z M 146.816406 94.25 " clip-rule="nonzero"/></clipPath><clipPath id="b8f3fdcc28"><path d="M 0.699219 0.25 L 218.933594 0.25 L 218.933594 218.488281 L 0.699219 218.488281 Z M 0.699219 0.25 " clip-rule="nonzero"/></clipPath><clipPath id="0b7d20aca0"><path d="M 109.816406 0.25 C 49.550781 0.25 0.699219 49.105469 0.699219 109.367188 C 0.699219 169.632812 49.550781 218.488281 109.816406 218.488281 C 170.082031 218.488281 218.933594 169.632812 218.933594 109.367188 C 218.933594 49.105469 170.082031 0.25 109.816406 0.25 Z M 109.816406 0.25 " clip-rule="nonzero"/></clipPath><clipPath id="e90c233a7c"><rect x="0" width="219" y="0" height="219"/></clipPath><clipPath id="2bdd9239f0"><rect x="0" width="330" y="0" height="472"/></clipPath><clipPath id="82a16ba089"><path d="M 113.738281 566.816406 L 355.988281 566.816406 L 355.988281 837.566406 L 113.738281 837.566406 Z M 113.738281 566.816406 " clip-rule="nonzero"/></clipPath><clipPath id="cb14ec47f8"><path d="M 158.46875 586 L 305.46875 586 L 305.46875 733.726562 L 158.46875 733.726562 Z M 158.46875 586 " clip-rule="nonzero"/></clipPath><clipPath id="b70df595eb"><rect x="0" width="1018" y="0" height="306"/></clipPath><clipPath id="41dfe2a76f"><rect x="0" width="171" y="0" height="52"/></clipPath><clipPath id="5f27514f13"><rect x="0" width="1013" y="0" height="103"/></clipPath></defs><g transform="matrix(1, 0, 0, 1, 70, 500)"><g clip-path="url(#2bdd9239f0)"><g clip-path="url(#f96678a096)"><path fill="#e8782c" d="M 164.921875 0.558594 C 73.960938 0.558594 0.179688 74.339844 0.179688 165.300781 C 0.179688 288.859375 164.921875 471.25 164.921875 471.25 C 164.921875 471.25 329.667969 288.859375 329.667969 165.300781 C 329.667969 74.339844 255.886719 0.558594 164.921875 0.558594 Z M 164.921875 224.136719 C 132.445312 224.136719 106.085938 197.777344 106.085938 165.300781 C 106.085938 132.824219 132.445312 106.464844 164.921875 106.464844 C 197.402344 106.464844 223.761719 132.824219 223.761719 165.300781 C 223.761719 197.777344 197.402344 224.136719 164.921875 224.136719 Z M 164.921875 224.136719 " fill-opacity="1" fill-rule="nonzero"/></g><g clip-path="url(#7e95fda96d)"><g clip-path="url(#4a641370c0)"><g transform="matrix(1, 0, 0, 1, 37, 94)"><g clip-path="url(#e90c233a7c)"><g clip-path="url(#b8f3fdcc28)"><g clip-path="url(#0b7d20aca0)"><path fill="#e97f2f" d="M 0.699219 0.25 L 218.933594 0.25 L 218.933594 218.488281 L 0.699219 218.488281 Z M 0.699219 0.25 " fill-opacity="1" fill-rule="nonzero"/></g></g></g></g></g></g></g></g><g clip-path="url(#82a16ba089)"><path fill="#ffffff" d="M 234.917969 566.929688 L 231.628906 568.796875 C 231.628906 568.796875 182.363281 596.355469 120.472656 596.355469 L 113.738281 596.355469 L 113.738281 709.460938 C 113.738281 754.480469 144.328125 786.570312 173.855469 806.972656 C 203.382812 827.371094 232.839844 836.898438 232.839844 836.898438 L 234.917969 837.554688 L 236.996094 836.898438 C 236.996094 836.898438 266.453125 827.371094 295.980469 806.972656 C 325.507812 786.570312 356.09375 754.480469 356.09375 709.460938 L 356.09375 596.355469 L 349.363281 596.355469 C 287.472656 596.355469 238.207031 568.796875 238.207031 568.796875 Z M 234.917969 566.929688 " fill-opacity="1" fill-rule="nonzero"/></g><g clip-path="url(#cb14ec47f8)"><path fill="#2c2421" d="M 255.4375 698.964844 L 255.4375 723.875 L 243.660156 723.875 L 243.660156 698.964844 Z M 213.1875 648.125 L 206.773438 649.707031 L 206.773438 662.121094 L 213.1875 660.914062 Z M 226.902344 644.75 L 219.679688 646.53125 L 219.679688 659.683594 L 226.902344 658.324219 Z M 226.902344 602.796875 L 219.675781 605.898438 L 219.679688 618.222656 L 226.902344 615.53125 Z M 219.679688 679.234375 L 226.902344 675.277344 L 226.902344 666.144531 L 219.679688 667.257812 Z M 206.777344 682.054688 L 213.1875 681.171875 L 213.1875 668.273438 L 206.777344 669.261719 Z M 226.902344 623.34375 L 219.679688 625.792969 L 219.679688 638.953125 L 226.902344 636.925781 Z M 213.1875 627.996094 L 206.773438 630.167969 L 206.773438 642.582031 L 213.1875 640.785156 Z M 213.191406 608.675781 L 206.777344 611.425781 L 206.777344 623.023438 L 213.1875 620.648438 Z M 194.53125 723.875 L 163.734375 723.875 L 163.734375 637.925781 L 194.53125 624.757812 Z M 175.007812 690.609375 L 169.792969 691.117188 L 169.792969 701.125 L 175.007812 700.886719 Z M 175.011719 674.226562 L 169.792969 675.300781 L 169.792969 685.34375 L 175.011719 684.628906 Z M 175.011719 657.859375 L 169.792969 659.5 L 169.792969 669.542969 L 175.011719 668.257812 Z M 175.015625 642.148438 L 169.792969 644.347656 L 169.792969 653.726562 L 175.011719 651.882812 L 175.011719 642.148438 Z M 186.355469 689.496094 L 180.347656 690.085938 L 180.347656 700.644531 L 186.355469 700.371094 Z M 186.355469 671.894531 L 180.347656 673.132812 L 180.347656 683.890625 L 186.355469 683.0625 Z M 186.355469 654.277344 L 180.347656 656.175781 L 180.347656 666.9375 L 186.355469 665.457031 Z M 186.355469 637.359375 L 180.34375 639.90625 L 180.34375 649.984375 L 186.355469 647.847656 Z M 305.113281 685.832031 C 304.863281 686.800781 304.019531 687.457031 303.019531 687.457031 L 292.527344 687.457031 L 292.527344 723.875 L 259.007812 723.875 L 259.007812 698.964844 L 259.453125 698.964844 C 260.441406 698.964844 261.230469 698.167969 261.230469 697.179688 C 261.230469 696.195312 260.441406 695.394531 259.453125 695.394531 L 239.65625 695.394531 C 238.667969 695.394531 237.863281 696.195312 237.863281 697.179688 C 237.863281 698.164062 238.667969 698.964844 239.65625 698.964844 L 240.101562 698.964844 L 240.101562 723.875 L 231.027344 723.875 L 231.027344 687.457031 L 220.535156 687.457031 C 219.535156 687.457031 218.691406 686.800781 218.441406 685.832031 C 218.195312 684.863281 218.621094 683.882812 219.496094 683.402344 L 259.0625 661.722656 C 260.804688 660.769531 262.75 660.769531 264.492188 661.722656 L 304.054688 683.402344 C 304.933594 683.882812 305.359375 684.863281 305.113281 685.832031 Z M 267.363281 675.902344 C 267.363281 672.816406 264.863281 670.316406 261.777344 670.316406 C 258.691406 670.316406 256.191406 672.816406 256.191406 675.902344 C 256.191406 678.984375 258.691406 681.484375 261.777344 681.484375 C 264.863281 681.484375 267.363281 678.984375 267.363281 675.902344 Z M 282.859375 687.453125 L 266.585938 687.453125 L 266.585938 696.082031 L 282.859375 696.082031 Z M 158.484375 733.492188 L 302.074219 733.492188 L 302.074219 727.441406 L 158.484375 727.441406 Z M 201.671875 603.492188 L 233.792969 589.761719 L 233.792969 671.5 L 257.347656 658.597656 C 260.15625 657.054688 263.398438 657.054688 266.207031 658.597656 L 269.488281 660.394531 L 269.488281 602.316406 C 269.488281 601.601562 269.074219 600.957031 268.414062 600.675781 L 234.503906 586.179688 C 234.058594 585.988281 233.542969 585.988281 233.097656 586.179688 L 199.191406 600.675781 C 198.53125 600.957031 198.101562 601.601562 198.101562 602.316406 L 198.101562 723.875 L 201.671875 723.875 Z M 201.671875 603.492188 " fill-opacity="1" fill-rule="evenodd"/></g><g transform="matrix(1, 0, 0, 1, 408, 517)"><g clip-path="url(#b70df595eb)"><g fill="#2c2421" fill-opacity="1"><g transform="translate(0.886175, 229.226198)"><g><path d="M 145.671875 -152.625 L 145.671875 0 L 108.5 0 L 108.5 -62.828125 L 50.65625 -62.828125 L 50.65625 0 L 13.484375 0 L 13.484375 -152.625 L 50.65625 -152.625 L 50.65625 -92.84375 L 108.5 -92.84375 L 108.5 -152.625 Z M 145.671875 -152.625 "/></g></g></g><g fill="#2c2421" fill-opacity="1"><g transform="translate(159.811853, 229.226198)"><g><path d="M 137.40625 -121.328125 L 61.3125 57.609375 L 21.3125 57.609375 L 49.140625 -4.125 L -0.21875 -121.328125 L 41.3125 -121.328125 L 69.359375 -45.4375 L 97.1875 -121.328125 Z M 137.40625 -121.328125 "/></g></g></g><g fill="#2c2421" fill-opacity="1"><g transform="translate(297.214087, 229.226198)"><g><path d="M 6.09375 -60.875 C 6.09375 -73.34375 8.445312 -84.285156 13.15625 -93.703125 C 17.863281 -103.128906 24.273438 -110.378906 32.390625 -115.453125 C 40.515625 -120.523438 49.578125 -123.0625 59.578125 -123.0625 C 67.546875 -123.0625 74.828125 -121.394531 81.421875 -118.0625 C 88.015625 -114.726562 93.195312 -110.234375 96.96875 -104.578125 L 96.96875 -160.890625 L 134.15625 -160.890625 L 134.15625 0 L 96.96875 0 L 96.96875 -17.390625 C 93.488281 -11.597656 88.523438 -6.960938 82.078125 -3.484375 C 75.628906 -0.00390625 68.128906 1.734375 59.578125 1.734375 C 49.578125 1.734375 40.515625 -0.835938 32.390625 -5.984375 C 24.273438 -11.128906 17.863281 -18.445312 13.15625 -27.9375 C 8.445312 -37.4375 6.09375 -48.414062 6.09375 -60.875 Z M 96.96875 -60.65625 C 96.96875 -69.9375 94.394531 -77.257812 89.25 -82.625 C 84.101562 -87.988281 77.832031 -90.671875 70.4375 -90.671875 C 63.050781 -90.671875 56.785156 -88.023438 51.640625 -82.734375 C 46.492188 -77.441406 43.921875 -70.15625 43.921875 -60.875 C 43.921875 -51.601562 46.492188 -44.25 51.640625 -38.8125 C 56.785156 -33.375 63.050781 -30.65625 70.4375 -30.65625 C 77.832031 -30.65625 84.101562 -33.335938 89.25 -38.703125 C 94.394531 -44.066406 96.96875 -51.382812 96.96875 -60.65625 Z M 96.96875 -60.65625 "/></g></g></g><g fill="#2c2421" fill-opacity="1"><g transform="translate(444.83451, 229.226198)"><g><path d="M 91.3125 0 L 59.578125 -57.609375 L 50.65625 -57.609375 L 50.65625 0 L 13.484375 0 L 13.484375 -152.625 L 75.875 -152.625 C 87.90625 -152.625 98.160156 -150.519531 106.640625 -146.3125 C 115.117188 -142.113281 121.457031 -136.351562 125.65625 -129.03125 C 129.863281 -121.71875 131.96875 -113.566406 131.96875 -104.578125 C 131.96875 -94.429688 129.101562 -85.367188 123.375 -77.390625 C 117.65625 -69.421875 109.21875 -63.769531 98.0625 -60.4375 L 133.28125 0 Z M 50.65625 -83.921875 L 73.703125 -83.921875 C 80.515625 -83.921875 85.625 -85.585938 89.03125 -88.921875 C 92.4375 -92.253906 94.140625 -96.96875 94.140625 -103.0625 C 94.140625 -108.851562 92.4375 -113.414062 89.03125 -116.75 C 85.625 -120.082031 80.515625 -121.75 73.703125 -121.75 L 50.65625 -121.75 Z M 50.65625 -83.921875 "/></g></g></g><g fill="#2c2421" fill-opacity="1"><g transform="translate(586.584962, 229.226198)"><g><path d="M 127.84375 -62.625 C 127.84375 -59.144531 127.625 -55.519531 127.1875 -51.75 L 43.046875 -51.75 C 43.628906 -44.207031 46.054688 -38.441406 50.328125 -34.453125 C 54.609375 -30.472656 59.863281 -28.484375 66.09375 -28.484375 C 75.375 -28.484375 81.828125 -32.394531 85.453125 -40.21875 L 125.015625 -40.21875 C 122.984375 -32.25 119.320312 -25.070312 114.03125 -18.6875 C 108.75 -12.3125 102.117188 -7.3125 94.140625 -3.6875 C 86.171875 -0.0703125 77.257812 1.734375 67.40625 1.734375 C 55.519531 1.734375 44.9375 -0.800781 35.65625 -5.875 C 26.375 -10.945312 19.125 -18.191406 13.90625 -27.609375 C 8.695312 -37.035156 6.09375 -48.050781 6.09375 -60.65625 C 6.09375 -73.269531 8.664062 -84.285156 13.8125 -93.703125 C 18.957031 -103.128906 26.164062 -110.378906 35.4375 -115.453125 C 44.71875 -120.523438 55.375 -123.0625 67.40625 -123.0625 C 79.144531 -123.0625 89.578125 -120.597656 98.703125 -115.671875 C 107.835938 -110.742188 114.976562 -103.710938 120.125 -94.578125 C 125.269531 -85.441406 127.84375 -74.789062 127.84375 -62.625 Z M 89.796875 -72.40625 C 89.796875 -78.78125 87.617188 -83.851562 83.265625 -87.625 C 78.921875 -91.394531 73.488281 -93.28125 66.96875 -93.28125 C 60.726562 -93.28125 55.46875 -91.46875 51.1875 -87.84375 C 46.914062 -84.21875 44.273438 -79.070312 43.265625 -72.40625 Z M 89.796875 -72.40625 "/></g></g></g><g fill="#2c2421" fill-opacity="1"><g transform="translate(720.508641, 229.226198)"><g><path d="M 87.40625 -122.625 C 101.601562 -122.625 112.941406 -118.019531 121.421875 -108.8125 C 129.910156 -99.613281 134.15625 -86.96875 134.15625 -70.875 L 134.15625 0 L 97.1875 0 L 97.1875 -65.875 C 97.1875 -73.988281 95.082031 -80.289062 90.875 -84.78125 C 86.675781 -89.28125 81.023438 -91.53125 73.921875 -91.53125 C 66.816406 -91.53125 61.160156 -89.28125 56.953125 -84.78125 C 52.753906 -80.289062 50.65625 -73.988281 50.65625 -65.875 L 50.65625 0 L 13.484375 0 L 13.484375 -121.328125 L 50.65625 -121.328125 L 50.65625 -105.234375 C 54.425781 -110.597656 59.5 -114.835938 65.875 -117.953125 C 72.257812 -121.066406 79.4375 -122.625 87.40625 -122.625 Z M 87.40625 -122.625 "/></g></g></g><g fill="#2c2421" fill-opacity="1"><g transform="translate(867.041996, 229.226198)"><g><path d="M 81.09375 -31.53125 L 81.09375 0 L 62.1875 0 C 48.707031 0 38.195312 -3.296875 30.65625 -9.890625 C 23.113281 -16.484375 19.34375 -27.25 19.34375 -42.1875 L 19.34375 -90.453125 L 4.5625 -90.453125 L 4.5625 -121.328125 L 19.34375 -121.328125 L 19.34375 -150.890625 L 56.53125 -150.890625 L 56.53125 -121.328125 L 80.875 -121.328125 L 80.875 -90.453125 L 56.53125 -90.453125 L 56.53125 -41.75 C 56.53125 -38.125 57.398438 -35.515625 59.140625 -33.921875 C 60.878906 -32.328125 63.773438 -31.53125 67.828125 -31.53125 Z M 81.09375 -31.53125 "/></g></g></g><g fill="#2c2421" fill-opacity="1"><g transform="translate(955.309947, 229.226198)"><g><path d="M 30.875 1.734375 C 24.351562 1.734375 19.023438 -0.179688 14.890625 -4.015625 C 10.765625 -7.859375 8.703125 -12.609375 8.703125 -18.265625 C 8.703125 -24.054688 10.765625 -28.910156 14.890625 -32.828125 C 19.023438 -36.742188 24.351562 -38.703125 30.875 -38.703125 C 37.25 -38.703125 42.5 -36.742188 46.625 -32.828125 C 50.757812 -28.910156 52.828125 -24.054688 52.828125 -18.265625 C 52.828125 -12.609375 50.757812 -7.859375 46.625 -4.015625 C 42.5 -0.179688 37.25 1.734375 30.875 1.734375 Z M 30.875 1.734375 "/></g></g></g></g></g><g transform="matrix(1, 0, 0, 1, 150, 733)"><g clip-path="url(#41dfe2a76f)"><g fill="#2c2421" fill-opacity="1"><g transform="translate(0.410791, 38.637492)"><g><path d="M 24.375 -25.53125 L 24.375 0 L 18.15625 0 L 18.15625 -10.515625 L 8.46875 -10.515625 L 8.46875 0 L 2.25 0 L 2.25 -25.53125 L 8.46875 -25.53125 L 8.46875 -15.53125 L 18.15625 -15.53125 L 18.15625 -25.53125 Z M 24.375 -25.53125 "/></g></g></g><g fill="#2c2421" fill-opacity="1"><g transform="translate(26.995368, 38.637492)"><g><path d="M 22.984375 -20.296875 L 10.25 9.640625 L 3.5625 9.640625 L 8.21875 -0.6875 L -0.03125 -20.296875 L 6.90625 -20.296875 L 11.609375 -7.609375 L 16.265625 -20.296875 Z M 22.984375 -20.296875 "/></g></g></g><g fill="#2c2421" fill-opacity="1"><g transform="translate(49.979572, 38.637492)"><g><path d="M 1.015625 -10.1875 C 1.015625 -12.269531 1.410156 -14.097656 2.203125 -15.671875 C 2.992188 -17.253906 4.066406 -18.46875 5.421875 -19.3125 C 6.773438 -20.164062 8.289062 -20.59375 9.96875 -20.59375 C 11.300781 -20.59375 12.519531 -20.3125 13.625 -19.75 C 14.726562 -19.195312 15.59375 -18.445312 16.21875 -17.5 L 16.21875 -26.921875 L 22.4375 -26.921875 L 22.4375 0 L 16.21875 0 L 16.21875 -2.90625 C 15.632812 -1.9375 14.800781 -1.160156 13.71875 -0.578125 C 12.644531 0.00390625 11.394531 0.296875 9.96875 0.296875 C 8.289062 0.296875 6.773438 -0.132812 5.421875 -1 C 4.066406 -1.863281 2.992188 -3.085938 2.203125 -4.671875 C 1.410156 -6.265625 1.015625 -8.101562 1.015625 -10.1875 Z M 16.21875 -10.15625 C 16.21875 -11.707031 15.785156 -12.929688 14.921875 -13.828125 C 14.066406 -14.722656 13.019531 -15.171875 11.78125 -15.171875 C 10.550781 -15.171875 9.503906 -14.726562 8.640625 -13.84375 C 7.773438 -12.957031 7.34375 -11.738281 7.34375 -10.1875 C 7.34375 -8.632812 7.773438 -7.398438 8.640625 -6.484375 C 9.503906 -5.578125 10.550781 -5.125 11.78125 -5.125 C 13.019531 -5.125 14.066406 -5.570312 14.921875 -6.46875 C 15.785156 -7.375 16.21875 -8.601562 16.21875 -10.15625 Z M 16.21875 -10.15625 "/></g></g></g><g fill="#2c2421" fill-opacity="1"><g transform="translate(74.673042, 38.637492)"><g><path d="M 15.28125 0 L 9.96875 -9.640625 L 8.46875 -9.640625 L 8.46875 0 L 2.25 0 L 2.25 -25.53125 L 12.6875 -25.53125 C 14.707031 -25.53125 16.425781 -25.175781 17.84375 -24.46875 C 19.257812 -23.769531 20.316406 -22.804688 21.015625 -21.578125 C 21.722656 -20.359375 22.078125 -19 22.078125 -17.5 C 22.078125 -15.800781 21.597656 -14.285156 20.640625 -12.953125 C 19.679688 -11.617188 18.269531 -10.671875 16.40625 -10.109375 L 22.296875 0 Z M 8.46875 -14.046875 L 12.328125 -14.046875 C 13.472656 -14.046875 14.328125 -14.320312 14.890625 -14.875 C 15.460938 -15.4375 15.75 -16.222656 15.75 -17.234375 C 15.75 -18.210938 15.460938 -18.976562 14.890625 -19.53125 C 14.328125 -20.09375 13.472656 -20.375 12.328125 -20.375 L 8.46875 -20.375 Z M 8.46875 -14.046875 "/></g></g></g><g fill="#2c2421" fill-opacity="1"><g transform="translate(98.384602, 38.637492)"><g><path d="M 21.390625 -10.46875 C 21.390625 -9.894531 21.351562 -9.289062 21.28125 -8.65625 L 7.203125 -8.65625 C 7.296875 -7.394531 7.703125 -6.429688 8.421875 -5.765625 C 9.140625 -5.097656 10.019531 -4.765625 11.0625 -4.765625 C 12.613281 -4.765625 13.691406 -5.421875 14.296875 -6.734375 L 20.921875 -6.734375 C 20.578125 -5.398438 19.960938 -4.195312 19.078125 -3.125 C 18.191406 -2.0625 17.082031 -1.222656 15.75 -0.609375 C 14.414062 -0.00390625 12.925781 0.296875 11.28125 0.296875 C 9.289062 0.296875 7.519531 -0.125 5.96875 -0.96875 C 4.414062 -1.820312 3.203125 -3.035156 2.328125 -4.609375 C 1.453125 -6.191406 1.015625 -8.039062 1.015625 -10.15625 C 1.015625 -12.257812 1.441406 -14.097656 2.296875 -15.671875 C 3.160156 -17.253906 4.367188 -18.46875 5.921875 -19.3125 C 7.472656 -20.164062 9.257812 -20.59375 11.28125 -20.59375 C 13.238281 -20.59375 14.984375 -20.175781 16.515625 -19.34375 C 18.046875 -18.519531 19.238281 -17.34375 20.09375 -15.8125 C 20.957031 -14.289062 21.390625 -12.507812 21.390625 -10.46875 Z M 15.015625 -12.109375 C 15.015625 -13.179688 14.648438 -14.03125 13.921875 -14.65625 C 13.203125 -15.289062 12.296875 -15.609375 11.203125 -15.609375 C 10.160156 -15.609375 9.28125 -15.300781 8.5625 -14.6875 C 7.851562 -14.082031 7.410156 -13.222656 7.234375 -12.109375 Z M 15.015625 -12.109375 "/></g></g></g><g fill="#2c2421" fill-opacity="1"><g transform="translate(120.786925, 38.637492)"><g><path d="M 14.625 -20.515625 C 17 -20.515625 18.894531 -19.742188 20.3125 -18.203125 C 21.726562 -16.660156 22.4375 -14.546875 22.4375 -11.859375 L 22.4375 0 L 16.265625 0 L 16.265625 -11.015625 C 16.265625 -12.378906 15.910156 -13.4375 15.203125 -14.1875 C 14.503906 -14.9375 13.5625 -15.3125 12.375 -15.3125 C 11.175781 -15.3125 10.222656 -14.9375 9.515625 -14.1875 C 8.816406 -13.4375 8.46875 -12.378906 8.46875 -11.015625 L 8.46875 0 L 2.25 0 L 2.25 -20.296875 L 8.46875 -20.296875 L 8.46875 -17.609375 C 9.101562 -18.503906 9.953125 -19.210938 11.015625 -19.734375 C 12.085938 -20.253906 13.289062 -20.515625 14.625 -20.515625 Z M 14.625 -20.515625 "/></g></g></g><g fill="#2c2421" fill-opacity="1"><g transform="translate(145.298553, 38.637492)"><g><path d="M 13.5625 -5.28125 L 13.5625 0 L 10.40625 0 C 8.144531 0 6.382812 -0.550781 5.125 -1.65625 C 3.863281 -2.757812 3.234375 -4.5625 3.234375 -7.0625 L 3.234375 -15.125 L 0.765625 -15.125 L 0.765625 -20.296875 L 3.234375 -20.296875 L 3.234375 -25.25 L 9.453125 -25.25 L 9.453125 -20.296875 L 13.53125 -20.296875 L 13.53125 -15.125 L 9.453125 -15.125 L 9.453125 -6.984375 C 9.453125 -6.378906 9.597656 -5.941406 9.890625 -5.671875 C 10.179688 -5.410156 10.664062 -5.28125 11.34375 -5.28125 Z M 13.5625 -5.28125 "/></g></g></g><g fill="#2c2421" fill-opacity="1"><g transform="translate(160.063733, 38.637492)"><g><path d="M 5.171875 0.296875 C 4.078125 0.296875 3.179688 -0.0234375 2.484375 -0.671875 C 1.796875 -1.316406 1.453125 -2.113281 1.453125 -3.0625 C 1.453125 -4.03125 1.796875 -4.835938 2.484375 -5.484375 C 3.179688 -6.140625 4.078125 -6.46875 5.171875 -6.46875 C 6.234375 -6.46875 7.109375 -6.140625 7.796875 -5.484375 C 8.492188 -4.835938 8.84375 -4.03125 8.84375 -3.0625 C 8.84375 -2.113281 8.492188 -1.316406 7.796875 -0.671875 C 7.109375 -0.0234375 6.234375 0.296875 5.171875 0.296875 Z M 5.171875 0.296875 "/></g></g></g></g></g><g transform="matrix(1, 0, 0, 1, 412, 814)"><g clip-path="url(#5f27514f13)"><g fill="#e97f2f" fill-opacity="1"><g transform="translate(0.436453, 81.915537)"><g><path d="M 5.265625 0 L 5.265625 -60.90625 L 17.78125 -60.90625 L 17.78125 -36.34375 L 44.1875 -36.34375 L 44.1875 -60.90625 L 56.703125 -60.90625 L 56.703125 0 L 44.1875 0 L 44.1875 -25.875 L 17.78125 -25.875 L 17.78125 0 Z M 5.265625 0 "/></g></g></g><g fill="#e97f2f" fill-opacity="1"><g transform="translate(77.61807, 81.915537)"><g><path d="M 4.984375 16.390625 L 7.1875 7.078125 L 9.5625 7.40625 C 11.0625 7.726562 12.375 7.78125 13.5 7.5625 C 14.632812 7.34375 15.550781 6.832031 16.25 6.03125 C 16.945312 5.226562 17.40625 4.117188 17.625 2.703125 L 18.15625 0.078125 L 1.109375 -45.125 L 14.015625 -45.125 L 21.625 -21.953125 C 22.550781 -19.066406 23.320312 -16.171875 23.9375 -13.265625 C 24.550781 -10.359375 25.222656 -7.351562 25.953125 -4.25 L 23.015625 -4.25 C 23.753906 -7.351562 24.488281 -10.363281 25.21875 -13.28125 C 25.957031 -16.195312 26.789062 -19.085938 27.71875 -21.953125 L 35.609375 -45.125 L 48.40625 -45.125 L 29.0625 5.6875 C 28.132812 8.101562 26.96875 10.179688 25.5625 11.921875 C 24.164062 13.671875 22.441406 15.007812 20.390625 15.9375 C 18.347656 16.863281 15.882812 17.328125 13 17.328125 C 11.445312 17.328125 9.96875 17.238281 8.5625 17.0625 C 7.15625 16.882812 5.960938 16.660156 4.984375 16.390625 Z M 4.984375 16.390625 "/></g></g></g><g fill="#e97f2f" fill-opacity="1"><g transform="translate(140.003167, 81.915537)"><g><path d="M 21.75 0.78125 C 18.175781 0.78125 14.984375 -0.128906 12.171875 -1.953125 C 9.367188 -3.785156 7.15625 -6.429688 5.53125 -9.890625 C 3.914062 -13.347656 3.109375 -17.5625 3.109375 -22.53125 C 3.109375 -27.570312 3.9375 -31.8125 5.59375 -35.25 C 7.257812 -38.695312 9.492188 -41.3125 12.296875 -43.09375 C 15.109375 -44.882812 18.234375 -45.78125 21.671875 -45.78125 C 24.085938 -45.78125 26.140625 -45.382812 27.828125 -44.59375 C 29.523438 -43.800781 30.925781 -42.800781 32.03125 -41.59375 C 33.132812 -40.382812 34 -39.125 34.625 -37.8125 L 34.953125 -37.8125 L 34.953125 -60.90625 L 47.125 -60.90625 L 47.125 0 L 35.109375 0 L 35.109375 -7.15625 L 34.671875 -7.15625 C 34.035156 -5.84375 33.148438 -4.578125 32.015625 -3.359375 C 30.890625 -2.148438 29.488281 -1.15625 27.8125 -0.375 C 26.132812 0.394531 24.113281 0.78125 21.75 0.78125 Z M 25.34375 -9.03125 C 27.4375 -9.03125 29.21875 -9.59375 30.6875 -10.71875 C 32.164062 -11.851562 33.300781 -13.429688 34.09375 -15.453125 C 34.882812 -17.472656 35.28125 -19.84375 35.28125 -22.5625 C 35.28125 -25.289062 34.890625 -27.65625 34.109375 -29.65625 C 33.335938 -31.65625 32.207031 -33.207031 30.71875 -34.3125 C 29.226562 -35.414062 27.4375 -35.96875 25.34375 -35.96875 C 23.269531 -35.96875 21.503906 -35.410156 20.046875 -34.296875 C 18.585938 -33.179688 17.484375 -31.613281 16.734375 -29.59375 C 15.984375 -27.582031 15.609375 -25.238281 15.609375 -22.5625 C 15.609375 -19.863281 15.984375 -17.5 16.734375 -15.46875 C 17.484375 -13.4375 18.585938 -11.851562 20.046875 -10.71875 C 21.503906 -9.59375 23.269531 -9.03125 25.34375 -9.03125 Z M 25.34375 -9.03125 "/></g></g></g><g fill="#e97f2f" fill-opacity="1"><g transform="translate(206.557524, 81.915537)"><g><path d="M 25.46875 0.90625 C 20.863281 0.90625 16.890625 -0.046875 13.546875 -1.953125 C 10.210938 -3.867188 7.640625 -6.566406 5.828125 -10.046875 C 4.015625 -13.535156 3.109375 -17.640625 3.109375 -22.359375 C 3.109375 -27.015625 4.003906 -31.09375 5.796875 -34.59375 C 7.597656 -38.101562 10.132812 -40.84375 13.40625 -42.8125 C 16.675781 -44.789062 20.503906 -45.78125 24.890625 -45.78125 C 27.921875 -45.78125 30.726562 -45.289062 33.3125 -44.3125 C 35.90625 -43.332031 38.175781 -41.878906 40.125 -39.953125 C 42.070312 -38.035156 43.582031 -35.640625 44.65625 -32.765625 C 45.738281 -29.890625 46.28125 -26.570312 46.28125 -22.8125 L 46.28125 -19.421875 L 7.96875 -19.421875 L 7.96875 -27.109375 L 40.34375 -27.109375 L 34.671875 -25.09375 C 34.671875 -27.4375 34.300781 -29.46875 33.5625 -31.1875 C 32.820312 -32.90625 31.738281 -34.234375 30.3125 -35.171875 C 28.882812 -36.117188 27.117188 -36.59375 25.015625 -36.59375 C 22.921875 -36.59375 21.132812 -36.113281 19.65625 -35.15625 C 18.1875 -34.195312 17.0625 -32.882812 16.28125 -31.21875 C 15.507812 -29.5625 15.125 -27.660156 15.125 -25.515625 L 15.125 -20.109375 C 15.125 -17.578125 15.554688 -15.425781 16.421875 -13.65625 C 17.296875 -11.882812 18.53125 -10.539062 20.125 -9.625 C 21.726562 -8.707031 23.59375 -8.25 25.71875 -8.25 C 27.15625 -8.25 28.46875 -8.460938 29.65625 -8.890625 C 30.84375 -9.316406 31.847656 -9.929688 32.671875 -10.734375 C 33.503906 -11.535156 34.140625 -12.519531 34.578125 -13.6875 L 45.65625 -12.09375 C 44.945312 -9.476562 43.671875 -7.195312 41.828125 -5.25 C 39.992188 -3.300781 37.691406 -1.785156 34.921875 -0.703125 C 32.160156 0.367188 29.007812 0.90625 25.46875 0.90625 Z M 25.46875 0.90625 "/></g></g></g><g fill="#e97f2f" fill-opacity="1"><g transform="translate(270.168941, 81.915537)"><g><path d="M 5.03125 0 L 5.03125 -45.125 L 16.84375 -45.125 L 16.84375 -37.328125 L 17.25 -37.328125 C 18.070312 -40.078125 19.4375 -42.148438 21.34375 -43.546875 C 23.25 -44.953125 25.507812 -45.65625 28.125 -45.65625 C 28.78125 -45.65625 29.460938 -45.628906 30.171875 -45.578125 C 30.878906 -45.523438 31.488281 -45.441406 32 -45.328125 L 32 -34.546875 C 31.488281 -34.703125 30.722656 -34.828125 29.703125 -34.921875 C 28.679688 -35.023438 27.691406 -35.078125 26.734375 -35.078125 C 24.929688 -35.078125 23.300781 -34.679688 21.84375 -33.890625 C 20.382812 -33.097656 19.242188 -31.976562 18.421875 -30.53125 C 17.609375 -29.09375 17.203125 -27.390625 17.203125 -25.421875 L 17.203125 0 Z M 5.03125 0 "/></g></g></g><g fill="#e97f2f" fill-opacity="1"><g transform="translate(317.021994, 81.915537)"><g><path d="M 17.859375 0.859375 C 14.972656 0.859375 12.382812 0.351562 10.09375 -0.65625 C 7.800781 -1.664062 6 -3.171875 4.6875 -5.171875 C 3.382812 -7.171875 2.734375 -9.65625 2.734375 -12.625 C 2.734375 -15.164062 3.195312 -17.28125 4.125 -18.96875 C 5.050781 -20.65625 6.316406 -22.015625 7.921875 -23.046875 C 9.535156 -24.085938 11.367188 -24.875 13.421875 -25.40625 C 15.484375 -25.9375 17.644531 -26.3125 19.90625 -26.53125 C 22.550781 -26.800781 24.675781 -27.050781 26.28125 -27.28125 C 27.894531 -27.519531 29.066406 -27.882812 29.796875 -28.375 C 30.535156 -28.863281 30.90625 -29.597656 30.90625 -30.578125 L 30.90625 -30.78125 C 30.90625 -32.03125 30.625 -33.097656 30.0625 -33.984375 C 29.507812 -34.867188 28.703125 -35.550781 27.640625 -36.03125 C 26.578125 -36.507812 25.28125 -36.75 23.75 -36.75 C 22.195312 -36.75 20.84375 -36.507812 19.6875 -36.03125 C 18.53125 -35.550781 17.585938 -34.910156 16.859375 -34.109375 C 16.140625 -33.304688 15.628906 -32.398438 15.328125 -31.390625 L 4.09375 -32.828125 C 4.71875 -35.546875 5.914062 -37.875 7.6875 -39.8125 C 9.457031 -41.75 11.71875 -43.226562 14.46875 -44.25 C 17.21875 -45.269531 20.351562 -45.78125 23.875 -45.78125 C 26.4375 -45.78125 28.867188 -45.476562 31.171875 -44.875 C 33.472656 -44.28125 35.519531 -43.351562 37.3125 -42.09375 C 39.113281 -40.84375 40.523438 -39.253906 41.546875 -37.328125 C 42.566406 -35.410156 43.078125 -33.117188 43.078125 -30.453125 L 43.078125 0 L 31.4375 0 L 31.4375 -6.296875 L 31.0625 -6.296875 C 30.332031 -4.878906 29.359375 -3.628906 28.140625 -2.546875 C 26.929688 -1.472656 25.476562 -0.632812 23.78125 -0.03125 C 22.09375 0.5625 20.117188 0.859375 17.859375 0.859375 Z M 21.296875 -7.6875 C 23.234375 -7.6875 24.921875 -8.066406 26.359375 -8.828125 C 27.804688 -9.585938 28.9375 -10.609375 29.75 -11.890625 C 30.570312 -13.171875 30.984375 -14.617188 30.984375 -16.234375 L 30.984375 -21.015625 C 30.597656 -20.796875 30.066406 -20.578125 29.390625 -20.359375 C 28.710938 -20.140625 27.9375 -19.945312 27.0625 -19.78125 C 26.1875 -19.625 25.304688 -19.472656 24.421875 -19.328125 C 23.535156 -19.191406 22.726562 -19.070312 22 -18.96875 C 20.519531 -18.75 19.207031 -18.398438 18.0625 -17.921875 C 16.914062 -17.441406 16.03125 -16.800781 15.40625 -16 C 14.78125 -15.195312 14.46875 -14.195312 14.46875 -13 C 14.46875 -11.851562 14.757812 -10.882812 15.34375 -10.09375 C 15.9375 -9.300781 16.742188 -8.703125 17.765625 -8.296875 C 18.785156 -7.890625 19.960938 -7.6875 21.296875 -7.6875 Z M 21.296875 -7.6875 "/></g></g></g><g fill="#e97f2f" fill-opacity="1"><g transform="translate(379.488984, 81.915537)"><g><path d="M 30.40625 0.78125 C 28.0625 0.78125 26.035156 0.394531 24.328125 -0.375 C 22.628906 -1.15625 21.222656 -2.148438 20.109375 -3.359375 C 18.992188 -4.578125 18.125 -5.84375 17.5 -7.15625 L 17 -7.15625 L 17 0 L 5.03125 0 L 5.03125 -60.90625 L 17.203125 -60.90625 L 17.203125 -37.8125 L 17.53125 -37.8125 C 18.1875 -39.125 19.054688 -40.382812 20.140625 -41.59375 C 21.234375 -42.800781 22.625 -43.800781 24.3125 -44.59375 C 26.007812 -45.382812 28.070312 -45.78125 30.5 -45.78125 C 33.957031 -45.78125 37.082031 -44.882812 39.875 -43.09375 C 42.664062 -41.3125 44.890625 -38.695312 46.546875 -35.25 C 48.210938 -31.8125 49.046875 -27.570312 49.046875 -22.53125 C 49.046875 -17.5625 48.234375 -13.347656 46.609375 -9.890625 C 44.992188 -6.429688 42.78125 -3.785156 39.96875 -1.953125 C 37.164062 -0.128906 33.976562 0.78125 30.40625 0.78125 Z M 26.78125 -9.03125 C 28.90625 -9.03125 30.6875 -9.59375 32.125 -10.71875 C 33.570312 -11.851562 34.671875 -13.4375 35.421875 -15.46875 C 36.171875 -17.5 36.546875 -19.863281 36.546875 -22.5625 C 36.546875 -25.238281 36.171875 -27.582031 35.421875 -29.59375 C 34.671875 -31.613281 33.570312 -33.179688 32.125 -34.296875 C 30.6875 -35.410156 28.90625 -35.96875 26.78125 -35.96875 C 24.707031 -35.96875 22.925781 -35.414062 21.4375 -34.3125 C 19.957031 -33.207031 18.828125 -31.65625 18.046875 -29.65625 C 17.265625 -27.65625 16.875 -25.289062 16.875 -22.5625 C 16.875 -19.84375 17.269531 -17.472656 18.0625 -15.453125 C 18.851562 -13.429688 19.988281 -11.851562 21.46875 -10.71875 C 22.957031 -9.59375 24.726562 -9.03125 26.78125 -9.03125 Z M 26.78125 -9.03125 "/></g></g></g><g fill="#e97f2f" fill-opacity="1"><g transform="translate(446.819971, 81.915537)"><g><path d="M 17.859375 0.859375 C 14.972656 0.859375 12.382812 0.351562 10.09375 -0.65625 C 7.800781 -1.664062 6 -3.171875 4.6875 -5.171875 C 3.382812 -7.171875 2.734375 -9.65625 2.734375 -12.625 C 2.734375 -15.164062 3.195312 -17.28125 4.125 -18.96875 C 5.050781 -20.65625 6.316406 -22.015625 7.921875 -23.046875 C 9.535156 -24.085938 11.367188 -24.875 13.421875 -25.40625 C 15.484375 -25.9375 17.644531 -26.3125 19.90625 -26.53125 C 22.550781 -26.800781 24.675781 -27.050781 26.28125 -27.28125 C 27.894531 -27.519531 29.066406 -27.882812 29.796875 -28.375 C 30.535156 -28.863281 30.90625 -29.597656 30.90625 -30.578125 L 30.90625 -30.78125 C 30.90625 -32.03125 30.625 -33.097656 30.0625 -33.984375 C 29.507812 -34.867188 28.703125 -35.550781 27.640625 -36.03125 C 26.578125 -36.507812 25.28125 -36.75 23.75 -36.75 C 22.195312 -36.75 20.84375 -36.507812 19.6875 -36.03125 C 18.53125 -35.550781 17.585938 -34.910156 16.859375 -34.109375 C 16.140625 -33.304688 15.628906 -32.398438 15.328125 -31.390625 L 4.09375 -32.828125 C 4.71875 -35.546875 5.914062 -37.875 7.6875 -39.8125 C 9.457031 -41.75 11.71875 -43.226562 14.46875 -44.25 C 17.21875 -45.269531 20.351562 -45.78125 23.875 -45.78125 C 26.4375 -45.78125 28.867188 -45.476562 31.171875 -44.875 C 33.472656 -44.28125 35.519531 -43.351562 37.3125 -42.09375 C 39.113281 -40.84375 40.523438 -39.253906 41.546875 -37.328125 C 42.566406 -35.410156 43.078125 -33.117188 43.078125 -30.453125 L 43.078125 0 L 31.4375 0 L 31.4375 -6.296875 L 31.0625 -6.296875 C 30.332031 -4.878906 29.359375 -3.628906 28.140625 -2.546875 C 26.929688 -1.472656 25.476562 -0.632812 23.78125 -0.03125 C 22.09375 0.5625 20.117188 0.859375 17.859375 0.859375 Z M 21.296875 -7.6875 C 23.234375 -7.6875 24.921875 -8.066406 26.359375 -8.828125 C 27.804688 -9.585938 28.9375 -10.609375 29.75 -11.890625 C 30.570312 -13.171875 30.984375 -14.617188 30.984375 -16.234375 L 30.984375 -21.015625 C 30.597656 -20.796875 30.066406 -20.578125 29.390625 -20.359375 C 28.710938 -20.140625 27.9375 -19.945312 27.0625 -19.78125 C 26.1875 -19.625 25.304688 -19.472656 24.421875 -19.328125 C 23.535156 -19.191406 22.726562 -19.070312 22 -18.96875 C 20.519531 -18.75 19.207031 -18.398438 18.0625 -17.921875 C 16.914062 -17.441406 16.03125 -16.800781 15.40625 -16 C 14.78125 -15.195312 14.46875 -14.195312 14.46875 -13 C 14.46875 -11.851562 14.757812 -10.882812 15.34375 -10.09375 C 15.9375 -9.300781 16.742188 -8.703125 17.765625 -8.296875 C 18.785156 -7.890625 19.960938 -7.6875 21.296875 -7.6875 Z M 21.296875 -7.6875 "/></g></g></g><g fill="#e97f2f" fill-opacity="1"><g transform="translate(509.286919, 81.915537)"><g><path d="M 21.75 0.78125 C 18.175781 0.78125 14.984375 -0.128906 12.171875 -1.953125 C 9.367188 -3.785156 7.15625 -6.429688 5.53125 -9.890625 C 3.914062 -13.347656 3.109375 -17.5625 3.109375 -22.53125 C 3.109375 -27.570312 3.9375 -31.8125 5.59375 -35.25 C 7.257812 -38.695312 9.492188 -41.3125 12.296875 -43.09375 C 15.109375 -44.882812 18.234375 -45.78125 21.671875 -45.78125 C 24.085938 -45.78125 26.140625 -45.382812 27.828125 -44.59375 C 29.523438 -43.800781 30.925781 -42.800781 32.03125 -41.59375 C 33.132812 -40.382812 34 -39.125 34.625 -37.8125 L 34.953125 -37.8125 L 34.953125 -60.90625 L 47.125 -60.90625 L 47.125 0 L 35.109375 0 L 35.109375 -7.15625 L 34.671875 -7.15625 C 34.035156 -5.84375 33.148438 -4.578125 32.015625 -3.359375 C 30.890625 -2.148438 29.488281 -1.15625 27.8125 -0.375 C 26.132812 0.394531 24.113281 0.78125 21.75 0.78125 Z M 25.34375 -9.03125 C 27.4375 -9.03125 29.21875 -9.59375 30.6875 -10.71875 C 32.164062 -11.851562 33.300781 -13.429688 34.09375 -15.453125 C 34.882812 -17.472656 35.28125 -19.84375 35.28125 -22.5625 C 35.28125 -25.289062 34.890625 -27.65625 34.109375 -29.65625 C 33.335938 -31.65625 32.207031 -33.207031 30.71875 -34.3125 C 29.226562 -35.414062 27.4375 -35.96875 25.34375 -35.96875 C 23.269531 -35.96875 21.503906 -35.410156 20.046875 -34.296875 C 18.585938 -33.179688 17.484375 -31.613281 16.734375 -29.59375 C 15.984375 -27.582031 15.609375 -25.238281 15.609375 -22.5625 C 15.609375 -19.863281 15.984375 -17.5 16.734375 -15.46875 C 17.484375 -13.4375 18.585938 -11.851562 20.046875 -10.71875 C 21.503906 -9.59375 23.269531 -9.03125 25.34375 -9.03125 Z M 25.34375 -9.03125 "/></g></g></g><g fill="#e97f2f" fill-opacity="1"><g transform="translate(575.841276, 81.915537)"><g/></g></g><g fill="#e97f2f" fill-opacity="1"><g transform="translate(609.655661, 81.915537)"><g><path d="M 5.265625 0 L 5.265625 -60.90625 L 29.1875 -60.90625 C 33.789062 -60.90625 37.726562 -60.085938 41 -58.453125 C 44.269531 -56.816406 46.769531 -54.515625 48.5 -51.546875 C 50.226562 -48.578125 51.09375 -45.078125 51.09375 -41.046875 C 51.09375 -37.035156 50.207031 -33.570312 48.4375 -30.65625 C 46.664062 -27.738281 44.117188 -25.503906 40.796875 -23.953125 C 37.472656 -22.398438 33.46875 -21.625 28.78125 -21.625 L 12.71875 -21.625 L 12.71875 -31.71875 L 27.265625 -31.71875 C 29.710938 -31.71875 31.753906 -32.078125 33.390625 -32.796875 C 35.023438 -33.523438 36.257812 -34.582031 37.09375 -35.96875 C 37.925781 -37.363281 38.34375 -39.054688 38.34375 -41.046875 C 38.34375 -43.085938 37.925781 -44.804688 37.09375 -46.203125 C 36.257812 -47.609375 35.023438 -48.6875 33.390625 -49.4375 C 31.753906 -50.1875 29.695312 -50.5625 27.21875 -50.5625 L 17.78125 -50.5625 L 17.78125 0 Z M 39.328125 0 L 24.6875 -27.671875 L 38.1875 -27.671875 L 53.09375 0 Z M 39.328125 0 "/></g></g></g><g fill="#e97f2f" fill-opacity="1"><g transform="translate(677.681374, 81.915537)"><g><path d="M 25.46875 0.90625 C 20.863281 0.90625 16.890625 -0.046875 13.546875 -1.953125 C 10.210938 -3.867188 7.640625 -6.566406 5.828125 -10.046875 C 4.015625 -13.535156 3.109375 -17.640625 3.109375 -22.359375 C 3.109375 -27.015625 4.003906 -31.09375 5.796875 -34.59375 C 7.597656 -38.101562 10.132812 -40.84375 13.40625 -42.8125 C 16.675781 -44.789062 20.503906 -45.78125 24.890625 -45.78125 C 27.921875 -45.78125 30.726562 -45.289062 33.3125 -44.3125 C 35.90625 -43.332031 38.175781 -41.878906 40.125 -39.953125 C 42.070312 -38.035156 43.582031 -35.640625 44.65625 -32.765625 C 45.738281 -29.890625 46.28125 -26.570312 46.28125 -22.8125 L 46.28125 -19.421875 L 7.96875 -19.421875 L 7.96875 -27.109375 L 40.34375 -27.109375 L 34.671875 -25.09375 C 34.671875 -27.4375 34.300781 -29.46875 33.5625 -31.1875 C 32.820312 -32.90625 31.738281 -34.234375 30.3125 -35.171875 C 28.882812 -36.117188 27.117188 -36.59375 25.015625 -36.59375 C 22.921875 -36.59375 21.132812 -36.113281 19.65625 -35.15625 C 18.1875 -34.195312 17.0625 -32.882812 16.28125 -31.21875 C 15.507812 -29.5625 15.125 -27.660156 15.125 -25.515625 L 15.125 -20.109375 C 15.125 -17.578125 15.554688 -15.425781 16.421875 -13.65625 C 17.296875 -11.882812 18.53125 -10.539062 20.125 -9.625 C 21.726562 -8.707031 23.59375 -8.25 25.71875 -8.25 C 27.15625 -8.25 28.46875 -8.460938 29.65625 -8.890625 C 30.84375 -9.316406 31.847656 -9.929688 32.671875 -10.734375 C 33.503906 -11.535156 34.140625 -12.519531 34.578125 -13.6875 L 45.65625 -12.09375 C 44.945312 -9.476562 43.671875 -7.195312 41.828125 -5.25 C 39.992188 -3.300781 37.691406 -1.785156 34.921875 -0.703125 C 32.160156 0.367188 29.007812 0.90625 25.46875 0.90625 Z M 25.46875 0.90625 "/></g></g></g><g fill="#e97f2f" fill-opacity="1"><g transform="translate(741.29277, 81.915537)"><g><path d="M 17.203125 -25.921875 L 17.203125 0 L 5.03125 0 L 5.03125 -45.125 L 16.640625 -45.125 L 16.796875 -33.765625 L 15.78125 -33.765625 C 17.007812 -37.578125 18.851562 -40.53125 21.3125 -42.625 C 23.78125 -44.726562 26.953125 -45.78125 30.828125 -45.78125 C 33.953125 -45.78125 36.6875 -45.097656 39.03125 -43.734375 C 41.375 -42.378906 43.1875 -40.421875 44.46875 -37.859375 C 45.75 -35.296875 46.390625 -32.210938 46.390625 -28.609375 L 46.390625 0 L 34.21875 0 L 34.21875 -26.453125 C 34.21875 -29.304688 33.492188 -31.53125 32.046875 -33.125 C 30.597656 -34.71875 28.582031 -35.515625 26 -35.515625 C 24.28125 -35.515625 22.757812 -35.140625 21.4375 -34.390625 C 20.113281 -33.648438 19.078125 -32.570312 18.328125 -31.15625 C 17.578125 -29.738281 17.203125 -27.992188 17.203125 -25.921875 Z M 17.203125 -25.921875 "/></g></g></g><g fill="#e97f2f" fill-opacity="1"><g transform="translate(807.111449, 81.915537)"><g><path d="M 28.171875 -45.125 L 28.171875 -35.765625 L 0.78125 -35.765625 L 0.78125 -45.125 Z M 7.359375 -56.203125 L 19.546875 -56.203125 L 19.546875 -13.375 C 19.546875 -11.925781 19.863281 -10.867188 20.5 -10.203125 C 21.144531 -9.535156 22.210938 -9.203125 23.703125 -9.203125 C 24.253906 -9.203125 24.957031 -9.25 25.8125 -9.34375 C 26.675781 -9.4375 27.335938 -9.523438 27.796875 -9.609375 L 29.140625 -0.328125 C 27.921875 -0.0234375 26.640625 0.179688 25.296875 0.296875 C 23.960938 0.421875 22.671875 0.484375 21.421875 0.484375 C 16.785156 0.484375 13.28125 -0.582031 10.90625 -2.71875 C 8.539062 -4.851562 7.359375 -7.976562 7.359375 -12.09375 Z M 7.359375 -56.203125 "/></g></g></g><g fill="#e97f2f" fill-opacity="1"><g transform="translate(852.697511, 81.915537)"><g><path d="M 17.859375 0.859375 C 14.972656 0.859375 12.382812 0.351562 10.09375 -0.65625 C 7.800781 -1.664062 6 -3.171875 4.6875 -5.171875 C 3.382812 -7.171875 2.734375 -9.65625 2.734375 -12.625 C 2.734375 -15.164062 3.195312 -17.28125 4.125 -18.96875 C 5.050781 -20.65625 6.316406 -22.015625 7.921875 -23.046875 C 9.535156 -24.085938 11.367188 -24.875 13.421875 -25.40625 C 15.484375 -25.9375 17.644531 -26.3125 19.90625 -26.53125 C 22.550781 -26.800781 24.675781 -27.050781 26.28125 -27.28125 C 27.894531 -27.519531 29.066406 -27.882812 29.796875 -28.375 C 30.535156 -28.863281 30.90625 -29.597656 30.90625 -30.578125 L 30.90625 -30.78125 C 30.90625 -32.03125 30.625 -33.097656 30.0625 -33.984375 C 29.507812 -34.867188 28.703125 -35.550781 27.640625 -36.03125 C 26.578125 -36.507812 25.28125 -36.75 23.75 -36.75 C 22.195312 -36.75 20.84375 -36.507812 19.6875 -36.03125 C 18.53125 -35.550781 17.585938 -34.910156 16.859375 -34.109375 C 16.140625 -33.304688 15.628906 -32.398438 15.328125 -31.390625 L 4.09375 -32.828125 C 4.71875 -35.546875 5.914062 -37.875 7.6875 -39.8125 C 9.457031 -41.75 11.71875 -43.226562 14.46875 -44.25 C 17.21875 -45.269531 20.351562 -45.78125 23.875 -45.78125 C 26.4375 -45.78125 28.867188 -45.476562 31.171875 -44.875 C 33.472656 -44.28125 35.519531 -43.351562 37.3125 -42.09375 C 39.113281 -40.84375 40.523438 -39.253906 41.546875 -37.328125 C 42.566406 -35.410156 43.078125 -33.117188 43.078125 -30.453125 L 43.078125 0 L 31.4375 0 L 31.4375 -6.296875 L 31.0625 -6.296875 C 30.332031 -4.878906 29.359375 -3.628906 28.140625 -2.546875 C 26.929688 -1.472656 25.476562 -0.632812 23.78125 -0.03125 C 22.09375 0.5625 20.117188 0.859375 17.859375 0.859375 Z M 21.296875 -7.6875 C 23.234375 -7.6875 24.921875 -8.066406 26.359375 -8.828125 C 27.804688 -9.585938 28.9375 -10.609375 29.75 -11.890625 C 30.570312 -13.171875 30.984375 -14.617188 30.984375 -16.234375 L 30.984375 -21.015625 C 30.597656 -20.796875 30.066406 -20.578125 29.390625 -20.359375 C 28.710938 -20.140625 27.9375 -19.945312 27.0625 -19.78125 C 26.1875 -19.625 25.304688 -19.472656 24.421875 -19.328125 C 23.535156 -19.191406 22.726562 -19.070312 22 -18.96875 C 20.519531 -18.75 19.207031 -18.398438 18.0625 -17.921875 C 16.914062 -17.441406 16.03125 -16.800781 15.40625 -16 C 14.78125 -15.195312 14.46875 -14.195312 14.46875 -13 C 14.46875 -11.851562 14.757812 -10.882812 15.34375 -10.09375 C 15.9375 -9.300781 16.742188 -8.703125 17.765625 -8.296875 C 18.785156 -7.890625 19.960938 -7.6875 21.296875 -7.6875 Z M 21.296875 -7.6875 "/></g></g></g><g fill="#e97f2f" fill-opacity="1"><g transform="translate(915.164459, 81.915537)"><g><path d="M 17.203125 -60.90625 L 17.203125 0 L 5.03125 0 L 5.03125 -60.90625 Z M 17.203125 -60.90625 "/></g></g></g><g fill="#e97f2f" fill-opacity="1"><g transform="translate(951.799156, 81.915537)"><g><path d="M 23.09375 0.9375 C 19.414062 0.9375 16.148438 0.398438 13.296875 -0.671875 C 10.453125 -1.753906 8.132812 -3.316406 6.34375 -5.359375 C 4.5625 -7.398438 3.441406 -9.851562 2.984375 -12.71875 L 14.46875 -14.265625 C 14.988281 -12.191406 15.984375 -10.625 17.453125 -9.5625 C 18.921875 -8.5 20.882812 -7.96875 23.34375 -7.96875 C 25.65625 -7.96875 27.476562 -8.410156 28.8125 -9.296875 C 30.15625 -10.179688 30.828125 -11.304688 30.828125 -12.671875 C 30.828125 -13.847656 30.34375 -14.804688 29.375 -15.546875 C 28.40625 -16.296875 26.953125 -16.878906 25.015625 -17.296875 L 17.203125 -18.84375 C 12.847656 -19.738281 9.578125 -21.265625 7.390625 -23.421875 C 5.210938 -25.578125 4.125 -28.359375 4.125 -31.765625 C 4.125 -34.617188 4.90625 -37.09375 6.46875 -39.1875 C 8.039062 -41.289062 10.25 -42.914062 13.09375 -44.0625 C 15.945312 -45.207031 19.28125 -45.78125 23.09375 -45.78125 C 26.75 -45.78125 29.910156 -45.257812 32.578125 -44.21875 C 35.253906 -43.1875 37.398438 -41.71875 39.015625 -39.8125 C 40.640625 -37.90625 41.671875 -35.660156 42.109375 -33.078125 L 31.1875 -31.5625 C 30.8125 -33.164062 29.960938 -34.476562 28.640625 -35.5 C 27.316406 -36.519531 25.550781 -37.03125 23.34375 -37.03125 C 21.300781 -37.03125 19.617188 -36.597656 18.296875 -35.734375 C 16.972656 -34.878906 16.3125 -33.773438 16.3125 -32.421875 C 16.3125 -31.273438 16.757812 -30.3125 17.65625 -29.53125 C 18.5625 -28.757812 20.035156 -28.164062 22.078125 -27.75 L 30.25 -26.125 C 34.664062 -25.25 37.941406 -23.800781 40.078125 -21.78125 C 42.222656 -19.769531 43.296875 -17.144531 43.296875 -13.90625 C 43.296875 -10.925781 42.4375 -8.328125 40.71875 -6.109375 C 39 -3.890625 36.617188 -2.160156 33.578125 -0.921875 C 30.546875 0.316406 27.050781 0.9375 23.09375 0.9375 Z M 23.09375 0.9375 "/></g></g></g></g></g></svg>